PathFileType	4	(X/Y/Z)	Star.trc	
DataRate	CameraRate	NumFrames	NumMarkers	Units	OrigDataRate	OrigDataStartFrame	OrigNumFrames	
100.00	100.00	51	6	mm	100.00	186	1362	
Frame#	Time	LThighSuperior			LThighInferior			LThighLateral			LAsis			RAsis			SACR			
		X1	Y1	Z1	X2	Y2	Z2	X3	Y3	Z3	X4	Y4	Z4	X5	Y5	Z5	X6	Y6	Z6	

1	0.000	153.09889	-160.18565	744.12335	172.31107	-159.03220	596.93121	186.82541	-66.48708	678.18268	228.21439	-74.17351	946.04956	479.68643	-53.04821	944.72937	372.75577	-240.91397	969.13959 
2	0.010	153.24123	-160.93271	744.39972	172.53285	-159.31477	597.03680	186.57761	-66.97277	678.72980	228.32742	-75.26889	946.31653	479.32797	-52.75747	944.45587	373.68652	-240.80479	969.32928 
3	0.020	154.00793	-162.03525	744.64105	172.68539	-159.57031	597.19476	186.31340	-67.48075	679.25360	228.49516	-76.33434	946.59192	479.15213	-52.40666	944.20087	374.61279	-240.78734	969.52832 
4	0.030	154.71880	-163.12428	744.85107	172.78549	-159.84013	597.41852	186.13498	-68.05486	679.78497	228.63858	-77.22820	946.82544	479.18991	-51.96678	944.00134	375.64355	-240.97527	969.76788 
5	0.040	155.09703	-164.05035	745.09552	172.85887	-159.96663	597.60962	185.98830	-68.57040	680.33313	228.77156	-78.22133	947.07129	479.28857	-51.53390	943.81091	376.61188	-241.19255	969.97919 
6	0.050	155.44263	-164.85466	745.34381	172.86172	-159.85536	597.75305	185.78242	-68.89434	680.96356	228.98746	-79.16694	947.32294	479.42065	-51.14997	943.60529	377.55911	-241.38420	970.13000 
7	0.060	155.66400	-165.42662	745.57312	172.68645	-159.57062	597.90759	185.51227	-69.06925	681.64941	229.25621	-79.88565	947.59943	479.58157	-50.77243	943.42639	378.40399	-241.40013	970.12805 
8	0.070	155.88243	-166.01665	745.83594	172.27155	-159.15903	598.10645	185.19795	-69.19463	682.36072	229.52368	-80.54838	947.91876	479.76953	-50.35453	943.29590	379.03079	-241.25087	970.08502 
9	0.080	156.16534	-166.67003	746.15405	171.67255	-158.76447	598.43079	184.78645	-69.34449	683.13965	229.83862	-81.21311	948.21503	479.95923	-49.93594	943.15515	379.81070	-241.18251	970.20612 
10	0.090	156.42905	-167.24696	746.55432	170.80209	-158.26447	598.85095	184.20673	-69.47738	683.98035	230.22160	-81.88337	948.48621	480.16479	-49.56741	942.97235	380.75711	-241.18796	970.37732 
11	0.100	156.43272	-167.86226	747.07849	169.63908	-157.68956	599.29126	183.39230	-69.53587	684.92059	230.62794	-82.60706	948.77344	480.42188	-49.22066	942.81738	381.61932	-241.16914	970.42224 
12	0.110	156.28026	-168.49921	747.62427	168.24025	-157.14445	599.84558	182.33875	-69.60352	686.03503	231.05763	-83.25613	949.05603	480.71259	-48.88858	942.66638	382.50027	-241.20079	970.39758 
13	0.120	156.39769	-169.14964	748.07379	166.54335	-156.54422	600.51410	180.95840	-69.68307	687.30109	231.52130	-83.83646	949.33411	481.06299	-48.54485	942.47418	383.47333	-241.38884	970.31683 
14	0.130	156.56543	-170.04280	748.56219	164.77052	-156.11339	601.17206	179.13028	-69.77023	688.63080	231.96596	-84.48295	949.64941	481.41641	-48.19264	942.24756	384.40314	-241.59615	970.14502 
15	0.140	156.65218	-171.03554	749.16406	163.16656	-155.77267	601.78546	176.86853	-69.95990	689.95496	232.38100	-85.09121	949.96350	481.68399	-47.85436	942.00940	385.21848	-241.58115	970.00018 
16	0.150	156.82248	-172.07269	749.74243	161.55969	-155.34271	602.37146	174.20090	-70.14661	691.33337	232.80461	-85.62106	950.23999	481.91736	-47.42369	941.86353	386.04968	-241.39760	969.93579 
17	0.160	156.92180	-173.14285	750.31256	159.77666	-154.78397	602.95435	171.23430	-70.19265	692.80609	233.16531	-87.67754	950.07751	482.14120	-46.88239	941.82050	387.07062	-241.22533	969.89319 
18	0.170	156.95082	-174.02798	750.83783	157.85474	-154.02710	603.67407	168.10156	-70.20995	694.38940	234.05354	-88.28148	950.22961	482.33307	-46.34512	941.79150	388.26398	-241.12964	969.79797 
19	0.180	157.03790	-174.87924	751.30597	155.62210	-153.26717	604.63446	164.92305	-70.29651	696.17291	235.34047	-87.86305	950.53729	482.48547	-45.82532	941.76447	389.44098	-241.09370	969.66736 
20	0.190	157.01122	-175.72891	751.97314	152.98611	-152.53593	605.74054	161.82570	-70.41239	698.16266	236.75594	-87.32333	950.79047	482.57852	-46.13484	941.49042	390.57343	-241.04735	969.59808 
21	0.200	156.75314	-176.43520	752.91473	150.09167	-151.67760	606.98907	158.81140	-70.43075	700.29950	237.24434	-87.78611	951.11462	482.79547	-45.54556	941.40466	391.74542	-241.46429	969.57849 
22	0.210	156.36392	-177.08337	753.94855	146.97595	-150.83231	608.49707	155.85262	-70.39871	702.55450	235.76732	-90.03139	951.72125	483.07877	-44.62417	941.40900	392.78482	-241.46988	969.50659 
23	0.220	155.93680	-177.83582	755.13153	143.79671	-150.06033	610.26648	153.01360	-70.57476	705.04962	236.68726	-90.48693	952.41895	483.38123	-43.74720	941.38245	393.95050	-241.37920	969.46973 
24	0.230	155.48596	-178.79749	756.52820	140.60478	-149.29155	612.22937	150.22379	-70.98634	707.84082	237.40352	-91.08943	953.05688	483.60233	-43.05738	941.32227	395.29794	-241.33429	969.46838 
25	0.240	154.93903	-179.98143	758.02466	137.33693	-148.58035	614.37659	147.36726	-71.42867	710.84497	237.95917	-91.83938	953.73206	483.72562	-42.57412	941.25476	396.69717	-241.21231	969.41071 
26	0.250	154.24857	-181.24911	759.61951	134.09067	-147.66037	616.69678	144.43666	-71.74031	714.05200	238.38171	-92.80618	954.47754	483.79135	-42.01962	941.21881	398.05069	-241.25426	969.37134 
27	0.260	153.61464	-181.72487	761.14496	130.69147	-146.34003	619.11841	141.59131	-71.84221	717.47418	238.75871	-93.86660	955.20551	483.78510	-41.33583	941.22736	399.45407	-241.48047	969.46667 
28	0.270	152.86894	-181.92749	762.83899	126.99022	-144.60756	621.81940	139.02623	-71.59808	721.18121	239.23288	-94.84281	955.93481	483.73886	-40.64088	941.25275	400.97955	-241.57048	969.62866 
29	0.280	152.08908	-181.80794	764.90192	123.13099	-142.55495	625.04041	136.62158	-70.97145	725.14795	239.69177	-95.96718	956.72150	483.70929	-40.03967	941.26544	402.38104	-241.43340	969.68311 
30	0.290	151.15129	-181.39084	767.23114	119.01634	-140.48412	628.64972	134.29327	-70.09177	729.29224	240.15685	-97.04913	957.56018	483.75394	-39.56382	941.27319	403.60364	-241.26218	969.73157 
31	0.300	149.92926	-180.80782	769.72827	114.69336	-138.35794	632.50049	132.02728	-69.18746	733.65253	240.66054	-97.96601	958.44098	483.86301	-39.17748	941.28955	404.95218	-241.27177	969.97644 
32	0.310	148.59637	-180.24362	772.45239	110.42074	-136.28317	636.61664	129.69759	-68.40299	738.28442	241.14458	-98.92508	959.32910	484.01349	-38.83810	941.31580	406.54590	-241.43095	970.30127 
33	0.320	147.27217	-179.87317	775.49164	106.12643	-134.37727	640.93298	127.30620	-67.66581	743.11346	241.78749	-99.70035	960.25049	484.25854	-38.54079	941.36523	407.51169	-241.66956	970.47198 
34	0.330	145.92126	-179.67522	778.71948	101.78059	-132.53871	645.36249	124.90015	-66.98793	748.03186	242.60744	-100.40556	961.23834	484.56827	-38.33192	941.39862	408.42474	-241.75652	970.60602 
35	0.340	144.53308	-179.49065	781.86829	97.54546	-130.82362	649.99921	122.43640	-66.52446	753.00171	243.43762	-101.18166	962.22089	484.91348	-38.18395	941.40540	409.40240	-241.79117	970.79169 
36	0.350	143.17596	-179.39027	784.95636	93.33947	-129.24341	654.88171	119.90572	-66.30897	758.11810	244.28792	-101.71634	963.18732	485.31903	-38.03140	941.41040	410.34753	-241.80864	970.96051 
37	0.360	141.86310	-179.36107	788.19482	89.07812	-127.69027	659.91913	117.37497	-66.17385	763.52124	245.03365	-102.33773	964.16547	485.78632	-37.84872	941.37982	411.20312	-241.90103	971.06165 
38	0.370	140.63058	-179.37416	791.56342	84.89526	-126.08141	665.11768	114.93471	-66.01357	769.09601	245.68130	-103.20975	965.15021	486.32245	-37.64700	941.29126	412.12109	-242.17644	971.18353 
39	0.380	139.50412	-179.35690	794.99567	80.75402	-124.59087	670.50092	112.63238	-65.80294	774.75958	246.45439	-103.87025	966.09796	486.82895	-37.52354	941.16559	413.17453	-242.50255	971.44513 
40	0.390	138.42834	-179.27521	798.59021	76.55793	-123.22208	676.13867	110.43374	-65.57979	780.51703	247.12970	-104.46792	966.95996	487.20850	-37.42688	941.05841	414.20505	-242.70911	971.76422 
41	0.400	137.38223	-179.35089	802.33685	72.45635	-121.84399	682.09906	108.37244	-65.53657	786.37421	247.78914	-105.15029	967.87573	487.46716	-37.24854	940.99622	414.98154	-242.73964	971.88519 
42	0.410	136.12125	-179.52449	806.41547	68.49643	-120.50222	688.22150	106.19559	-65.72990	792.53741	248.67853	-105.71636	968.92999	487.64694	-37.04260	940.97681	415.71201	-242.71812	971.86957 
43	0.420	134.85562	-179.70609	810.57587	64.56783	-119.22509	694.44928	103.89507	-65.85392	798.89142	249.47629	-106.22857	969.99402	487.79053	-36.83857	941.01770	416.69165	-242.86703	971.96893 
44	0.430	134.20807	-179.89255	814.15289	60.73393	-118.07909	700.77704	102.04053	-65.79661	805.08807	250.02612	-106.88603	970.99738	487.89862	-36.63109	941.09119	417.86359	-243.25247	972.27679 
45	0.440	133.50468	-179.85449	817.57849	57.03617	-116.88072	707.13483	100.49477	-65.87276	811.23682	250.45689	-107.67899	972.04175	487.98502	-36.40124	941.16736	418.81253	-243.26732	972.35693 
46	0.450	132.30746	-179.69991	821.40729	53.36310	-115.56395	713.63019	98.93781	-65.99420	817.47180	250.84781	-108.51620	973.15961	488.03925	-36.15057	941.26001	419.62469	-243.38153	972.51434 
47	0.460	131.24692	-179.64586	825.37927	49.74110	-114.41236	720.26282	97.51350	-65.97386	823.78082	251.25484	-109.29865	974.21680	488.04623	-35.90023	941.35803	420.17392	-243.44649	972.60010 
48	0.470	130.37671	-179.60394	829.27863	46.32809	-113.37894	727.02551	96.13348	-66.14517	830.21497	251.77388	-109.85169	975.18073	488.04706	-35.64193	941.45245	420.61038	-243.40512	972.58521 
49	0.480	129.54604	-179.69550	833.24835	43.04080	-112.19743	733.94080	94.80118	-66.55026	836.67194	252.28571	-110.44203	976.11761	488.01355	-35.38681	941.54028	421.13254	-243.36877	972.54608 
50	0.490	128.88789	-179.62424	836.73773	39.83721	-110.92795	740.87598	93.72761	-66.89542	843.05200	252.66931	-111.22807	977.01373	487.90268	-35.11352	941.60071	421.72787	-243.42088	972.52460 
51	0.500	128.52971	-179.25076	839.58289	36.86069	-109.95162	747.84503	92.86088	-67.22705	849.49255	253.09248	-111.90294	977.90588	487.76797	-34.81544	941.65833	422.35132	-243.46735	972.50879 
